<svg width="164" height="30" viewBox="0 0 164 30" fill="none" xmlns="http://www.w3.org/2000/svg">
<path d="M27.7812 22H23.6113C23.5527 21.9089 23.4421 21.707 23.2793 21.3945L22.9766 20.8281C22.0456 19.0768 21.1243 17.5241 20.2129 16.1699L18.8555 17.7812V22H15.1543V7.13672H18.8555V13.3965L23.4941 7.13672H27.5273L22.6543 13.543C23.0775 14.1354 23.6113 14.9655 24.2559 16.0332C24.9004 17.1009 25.6882 18.429 26.6191 20.0176L27.1465 20.916L27.7812 22ZM37.4785 19.2266H32.293L31.5117 22H27.6152L32.791 7.03906H37.0293L42.2441 22H38.2988L37.4785 19.2266ZM36.707 16.6289L35.3301 11.9707L34.8418 10.0469L34.3438 11.9707L33.0254 16.6289H36.707ZM56.2969 7.13672V22H52.5566L47.7422 14.041L46.6582 11.7852L47.1172 15.5742V22H43.748V7.13672H47.2246L52.293 15.291L53.3281 17.459L52.9277 13.6797V7.13672H56.2969ZM61.4922 7.13672C61.7721 7.13672 62.2441 7.11719 62.9082 7.07812C63.8327 7.01953 64.5423 6.99023 65.0371 6.99023C67.0293 6.99023 68.4779 7.32227 69.3828 7.98633C70.2943 8.64388 70.75 9.58789 70.75 10.8184C70.75 11.6322 70.5579 12.3418 70.1738 12.9473C69.7962 13.5462 69.2461 13.9466 68.5234 14.1484C69.0964 14.2201 69.6107 14.4023 70.0664 14.6953C70.5286 14.9883 70.89 15.3757 71.1504 15.8574C71.4108 16.3392 71.541 16.8861 71.541 17.498C71.541 18.4616 71.349 19.2852 70.9648 19.9688C70.5872 20.6458 69.9427 21.1764 69.0312 21.5605C68.1263 21.9447 66.9089 22.1367 65.3789 22.1367C64.3438 22.1367 63.071 22.0911 61.5605 22H59.6855V7.12695L61.4922 7.13672ZM64.8125 13.2598C65.6328 13.2598 66.235 13.1003 66.6191 12.7812C67.0098 12.4622 67.2051 11.9219 67.2051 11.1602C67.2051 10.5612 66.9935 10.1348 66.5703 9.88086C66.1471 9.62044 65.5059 9.49023 64.6465 9.49023C64.4382 9.49023 64.194 9.5 63.9141 9.51953C63.6341 9.53906 63.4551 9.57161 63.377 9.61719V13.1816C63.6243 13.2337 64.1029 13.2598 64.8125 13.2598ZM65.1934 19.7051C66.0592 19.7051 66.6973 19.5358 67.1074 19.1973C67.5241 18.8522 67.7324 18.2956 67.7324 17.5273C67.7324 16.8698 67.5176 16.3783 67.0879 16.0527C66.6647 15.7207 65.9909 15.5547 65.0664 15.5547C64.7539 15.5547 64.4186 15.5612 64.0605 15.5742C63.709 15.5872 63.4811 15.6068 63.377 15.6328V19.4805C63.4941 19.5586 63.735 19.6172 64.0996 19.6562C64.4642 19.6888 64.8288 19.7051 65.1934 19.7051ZM81.9512 19.2266H76.7656L75.9844 22H72.0879L77.2637 7.03906H81.502L86.7168 22H82.7715L81.9512 19.2266ZM81.1797 16.6289L79.8027 11.9707L79.3145 10.0469L78.8164 11.9707L77.498 16.6289H81.1797ZM100.77 7.13672V22H97.0293L92.2148 14.041L91.1309 11.7852L91.5898 15.5742V22H88.2207V7.13672H91.6973L96.7656 15.291L97.8008 17.459L97.4004 13.6797V7.13672H100.77ZM118.768 19.2266H113.582L112.801 22H108.904L114.08 7.03906H118.318L123.533 22H119.588L118.768 19.2266ZM117.996 16.6289L116.619 11.9707L116.131 10.0469L115.633 11.9707L114.314 16.6289H117.996ZM126.482 7.13672C126.919 7.13672 127.586 7.11068 128.484 7.05859C129.422 7.00651 130.148 6.98047 130.662 6.98047C132.537 6.98047 133.96 7.39062 134.93 8.21094C135.906 9.02474 136.395 10.3626 136.395 12.2246C136.395 13.3965 136.16 14.3926 135.691 15.2129C135.223 16.0332 134.533 16.6549 133.621 17.0781C132.71 17.5013 131.596 17.7129 130.281 17.7129C129.689 17.7129 129.184 17.7064 128.768 17.6934V22H125.037V7.13672H126.482ZM130.281 15.0469C131.036 15.0469 131.635 14.819 132.078 14.3633C132.527 13.9076 132.752 13.1882 132.752 12.2051C132.752 11.3913 132.547 10.75 132.137 10.2812C131.733 9.8125 131.128 9.57812 130.32 9.57812C129.708 9.57812 129.191 9.61393 128.768 9.68555V14.9688C129.314 15.0208 129.819 15.0469 130.281 15.0469ZM140.076 7.13672C140.512 7.13672 141.18 7.11068 142.078 7.05859C143.016 7.00651 143.742 6.98047 144.256 6.98047C146.131 6.98047 147.553 7.39062 148.523 8.21094C149.5 9.02474 149.988 10.3626 149.988 12.2246C149.988 13.3965 149.754 14.3926 149.285 15.2129C148.816 16.0332 148.126 16.6549 147.215 17.0781C146.303 17.5013 145.19 17.7129 143.875 17.7129C143.283 17.7129 142.778 17.7064 142.361 17.6934V22H138.631V7.13672H140.076ZM143.875 15.0469C144.63 15.0469 145.229 14.819 145.672 14.3633C146.121 13.9076 146.346 13.1882 146.346 12.2051C146.346 11.3913 146.141 10.75 145.73 10.2812C145.327 9.8125 144.721 9.57812 143.914 9.57812C143.302 9.57812 142.785 9.61393 142.361 9.68555V14.9688C142.908 15.0208 143.413 15.0469 143.875 15.0469Z" fill="black"/>
</svg>
