<svg width="180" height="50" viewBox="0 0 180 50" fill="none" xmlns="http://www.w3.org/2000/svg">
<path d="M58.3992 28.156L56.2392 30.82V40H52.2792V13.54H56.2392V25.348L65.3112 13.54H70.1352L61.0272 25.168L71.4312 40H66.4992L58.3992 28.156ZM80.7453 40.36C79.2573 40.36 77.8773 40.012 76.6053 39.316C75.3573 38.596 74.3493 37.588 73.5813 36.292C72.8373 34.972 72.4653 33.436 72.4653 31.684C72.4653 29.956 72.7893 28.444 73.4373 27.148C74.1093 25.852 75.0573 24.844 76.2813 24.124C77.5053 23.404 78.9453 23.044 80.6013 23.044C81.5613 23.044 82.4613 23.212 83.3013 23.548C84.1413 23.884 84.8493 24.304 85.4253 24.808C86.0013 25.288 86.3853 25.768 86.5773 26.248L86.6493 23.476H90.3573V40H86.6853L86.6133 37.084C86.2053 37.948 85.4613 38.716 84.3813 39.388C83.3013 40.036 82.0893 40.36 80.7453 40.36ZM81.3933 37.12C82.7613 37.12 83.9133 36.652 84.8493 35.716C85.7853 34.756 86.2533 33.508 86.2533 31.972V31.72C86.2533 30.688 86.0373 29.764 85.6053 28.948C85.1733 28.132 84.5853 27.496 83.8413 27.04C83.0973 26.584 82.2813 26.356 81.3933 26.356C79.8573 26.356 78.6693 26.86 77.8293 27.868C76.9893 28.852 76.5693 30.136 76.5693 31.72C76.5693 33.328 76.9773 34.636 77.7933 35.644C78.6333 36.628 79.8333 37.12 81.3933 37.12ZM95.5858 23.476H99.4018L99.4378 26.5C99.8938 25.492 100.614 24.664 101.598 24.016C102.582 23.368 103.734 23.044 105.054 23.044C106.758 23.044 108.066 23.404 108.978 24.124C109.89 24.82 110.502 25.804 110.814 27.076C111.126 28.348 111.282 30.004 111.282 32.044V40H107.394V32.152C107.394 30.064 107.19 28.564 106.782 27.652C106.374 26.716 105.534 26.248 104.262 26.248C103.542 26.248 102.81 26.476 102.066 26.932C101.322 27.364 100.698 28 100.194 28.84C99.7138 29.68 99.4738 30.664 99.4738 31.792V40H95.5858V23.476ZM126.085 40.36C124.741 40.36 123.529 40.036 122.449 39.388C121.393 38.716 120.661 37.948 120.253 37.084L120.181 40H116.437V13.54H120.253V23.728L120.073 26.536C120.481 25.576 121.273 24.76 122.449 24.088C123.649 23.392 124.945 23.044 126.337 23.044C127.969 23.044 129.385 23.416 130.585 24.16C131.809 24.88 132.745 25.9 133.393 27.22C134.041 28.516 134.365 30.028 134.365 31.756C134.365 33.508 133.981 35.032 133.213 36.328C132.469 37.624 131.461 38.62 130.189 39.316C128.941 40.012 127.573 40.36 126.085 40.36ZM125.437 37.12C126.997 37.12 128.197 36.628 129.037 35.644C129.877 34.636 130.297 33.34 130.297 31.756C130.297 30.148 129.877 28.852 129.037 27.868C128.221 26.86 127.021 26.356 125.437 26.356C124.069 26.356 122.917 26.836 121.981 27.796C121.045 28.732 120.577 29.968 120.577 31.504V31.756C120.577 32.788 120.793 33.712 121.225 34.528C121.681 35.344 122.269 35.98 122.989 36.436C123.733 36.892 124.549 37.12 125.437 37.12ZM145.82 40.36C144.332 40.36 142.952 40.012 141.68 39.316C140.432 38.596 139.424 37.588 138.656 36.292C137.912 34.972 137.54 33.436 137.54 31.684C137.54 29.956 137.864 28.444 138.512 27.148C139.184 25.852 140.132 24.844 141.356 24.124C142.58 23.404 144.02 23.044 145.676 23.044C146.636 23.044 147.536 23.212 148.376 23.548C149.216 23.884 149.924 24.304 150.5 24.808C151.076 25.288 151.46 25.768 151.652 26.248L151.724 23.476H155.432V40H151.76L151.688 37.084C151.28 37.948 150.536 38.716 149.456 39.388C148.376 40.036 147.164 40.36 145.82 40.36ZM146.468 37.12C147.836 37.12 148.988 36.652 149.924 35.716C150.86 34.756 151.328 33.508 151.328 31.972V31.72C151.328 30.688 151.112 29.764 150.68 28.948C150.248 28.132 149.66 27.496 148.916 27.04C148.172 26.584 147.356 26.356 146.468 26.356C144.932 26.356 143.744 26.86 142.904 27.868C142.064 28.852 141.644 30.136 141.644 31.72C141.644 33.328 142.052 34.636 142.868 35.644C143.708 36.628 144.908 37.12 146.468 37.12ZM160.66 23.476H164.476L164.512 26.5C164.968 25.492 165.688 24.664 166.672 24.016C167.656 23.368 168.808 23.044 170.128 23.044C171.832 23.044 173.14 23.404 174.052 24.124C174.964 24.82 175.576 25.804 175.888 27.076C176.2 28.348 176.356 30.004 176.356 32.044V40H172.468V32.152C172.468 30.064 172.264 28.564 171.856 27.652C171.448 26.716 170.608 26.248 169.336 26.248C168.616 26.248 167.884 26.476 167.14 26.932C166.396 27.364 165.772 28 165.268 28.84C164.788 29.68 164.548 30.664 164.548 31.792V40H160.66V23.476Z" fill="#31207E"/>
<g style="mix-blend-mode:darken">
<path d="M0 33.5288L-1.15709e-06 7.0576L26.4712 7.0576C26.4712 21.6772 14.6196 33.5288 0 33.5288Z" fill="#FE3243"/>
</g>
<g style="mix-blend-mode:darken">
<path d="M26.4712 46.5969L-1.33514e-05 46.5969L-1.10373e-05 20.1257C14.6196 20.1257 26.4712 31.9773 26.4712 46.5969Z" fill="#58B8FF"/>
</g>
</svg>
