<svg width="151" height="45" viewBox="0 0 151 45" fill="none" xmlns="http://www.w3.org/2000/svg">
<path d="M65.34 22.4847L63.8213 24.3578V30.8125H61.0369V12.2078H63.8213V20.5103L70.2 12.2078H73.5919L67.1878 20.3837L74.5031 30.8125H71.0353L65.34 22.4847ZM81.0521 31.0656C80.0059 31.0656 79.0356 30.8209 78.1412 30.3316C77.2637 29.8253 76.555 29.1166 76.015 28.2053C75.4918 27.2772 75.2303 26.1972 75.2303 24.9653C75.2303 23.7503 75.4581 22.6872 75.9137 21.7759C76.3862 20.8647 77.0528 20.1559 77.9134 19.6497C78.774 19.1434 79.7865 18.8903 80.9509 18.8903C81.6259 18.8903 82.2587 19.0084 82.8493 19.2447C83.44 19.4809 83.9378 19.7762 84.3428 20.1306C84.7478 20.4681 85.0178 20.8056 85.1528 21.1431L85.2034 19.1941H87.8106V30.8125H85.2287L85.1781 28.7622C84.8912 29.3697 84.3681 29.9097 83.6087 30.3822C82.8493 30.8378 81.9971 31.0656 81.0521 31.0656ZM81.5078 28.7875C82.4696 28.7875 83.2796 28.4584 83.9378 27.8003C84.5959 27.1253 84.925 26.2478 84.925 25.1678V24.9906C84.925 24.265 84.7731 23.6153 84.4693 23.0416C84.1656 22.4678 83.7521 22.0206 83.229 21.7C82.7059 21.3794 82.1321 21.2191 81.5078 21.2191C80.4278 21.2191 79.5925 21.5734 79.0018 22.2822C78.4112 22.9741 78.1159 23.8769 78.1159 24.9906C78.1159 26.1212 78.4028 27.0409 78.9765 27.7497C79.5671 28.4416 80.4109 28.7875 81.5078 28.7875ZM91.4868 19.1941H94.1699L94.1953 21.3203C94.5159 20.6116 95.0221 20.0294 95.714 19.5737C96.4059 19.1181 97.2159 18.8903 98.144 18.8903C99.3421 18.8903 100.262 19.1434 100.903 19.6497C101.544 20.1391 101.975 20.8309 102.194 21.7253C102.413 22.6197 102.523 23.7841 102.523 25.2184V30.8125H99.7893V25.2944C99.7893 23.8262 99.6459 22.7716 99.359 22.1303C99.0721 21.4722 98.4815 21.1431 97.5871 21.1431C97.0809 21.1431 96.5662 21.3034 96.0431 21.6241C95.5199 21.9278 95.0812 22.375 94.7268 22.9656C94.3893 23.5562 94.2206 24.2481 94.2206 25.0412V30.8125H91.4868V19.1941ZM112.931 31.0656C111.986 31.0656 111.134 30.8378 110.375 30.3822C109.632 29.9097 109.118 29.3697 108.831 28.7622L108.78 30.8125H106.148V12.2078H108.831V19.3712L108.704 21.3456C108.991 20.6706 109.548 20.0969 110.375 19.6244C111.219 19.135 112.13 18.8903 113.109 18.8903C114.256 18.8903 115.252 19.1519 116.096 19.675C116.956 20.1812 117.614 20.8984 118.07 21.8266C118.526 22.7378 118.753 23.8009 118.753 25.0159C118.753 26.2478 118.483 27.3194 117.943 28.2306C117.42 29.1419 116.711 29.8422 115.817 30.3316C114.94 30.8209 113.978 31.0656 112.931 31.0656ZM112.476 28.7875C113.573 28.7875 114.416 28.4416 115.007 27.7497C115.598 27.0409 115.893 26.1297 115.893 25.0159C115.893 23.8853 115.598 22.9741 115.007 22.2822C114.433 21.5734 113.59 21.2191 112.476 21.2191C111.514 21.2191 110.704 21.5566 110.046 22.2316C109.388 22.8897 109.059 23.7587 109.059 24.8387V25.0159C109.059 25.7416 109.211 26.3912 109.514 26.965C109.835 27.5387 110.248 27.9859 110.755 28.3066C111.278 28.6272 111.851 28.7875 112.476 28.7875ZM126.807 31.0656C125.761 31.0656 124.791 30.8209 123.897 30.3316C123.019 29.8253 122.31 29.1166 121.77 28.2053C121.247 27.2772 120.986 26.1972 120.986 24.9653C120.986 23.7503 121.213 22.6872 121.669 21.7759C122.142 20.8647 122.808 20.1559 123.669 19.6497C124.529 19.1434 125.542 18.8903 126.706 18.8903C127.381 18.8903 128.014 19.0084 128.605 19.2447C129.195 19.4809 129.693 19.7762 130.098 20.1306C130.503 20.4681 130.773 20.8056 130.908 21.1431L130.959 19.1941H133.566V30.8125H130.984L130.933 28.7622C130.647 29.3697 130.123 29.9097 129.364 30.3822C128.605 30.8378 127.752 31.0656 126.807 31.0656ZM127.263 28.7875C128.225 28.7875 129.035 28.4584 129.693 27.8003C130.351 27.1253 130.68 26.2478 130.68 25.1678V24.9906C130.68 24.265 130.528 23.6153 130.225 23.0416C129.921 22.4678 129.507 22.0206 128.984 21.7C128.461 21.3794 127.887 21.2191 127.263 21.2191C126.183 21.2191 125.348 21.5734 124.757 22.2822C124.167 22.9741 123.871 23.8769 123.871 24.9906C123.871 26.1212 124.158 27.0409 124.732 27.7497C125.322 28.4416 126.166 28.7875 127.263 28.7875ZM137.242 19.1941H139.925L139.951 21.3203C140.271 20.6116 140.777 20.0294 141.469 19.5737C142.161 19.1181 142.971 18.8903 143.899 18.8903C145.097 18.8903 146.017 19.1434 146.658 19.6497C147.3 20.1391 147.73 20.8309 147.949 21.7253C148.169 22.6197 148.278 23.7841 148.278 25.2184V30.8125H145.545V25.2944C145.545 23.8262 145.401 22.7716 145.114 22.1303C144.827 21.4722 144.237 21.1431 143.342 21.1431C142.836 21.1431 142.322 21.3034 141.798 21.6241C141.275 21.9278 140.837 22.375 140.482 22.9656C140.145 23.5562 139.976 24.2481 139.976 25.0412V30.8125H137.242V19.1941Z" fill="white"/>
<rect width="45" height="45" rx="8.48168" fill="white"/>
<g style="mix-blend-mode:darken">
<path d="M12.9581 26.3875L12.9581 7.77489L31.5707 7.77488C31.5707 18.0543 23.2376 26.3875 12.9581 26.3875Z" fill="#FE3243"/>
</g>
<g style="mix-blend-mode:darken">
<path d="M31.5707 35.5759L12.9581 35.5759L12.9581 16.9633C23.2376 16.9633 31.5707 25.2965 31.5707 35.5759Z" fill="#58B8FF"/>
</g>
</svg>
